<svg width="48" height="48" viewBox="0 0 48 48" fill="none" xmlns="http://www.w3.org/2000/svg">
<rect width="48" height="48" rx="12" fill="#5E81F4"/>
<path d="M23.528 15.672C25.224 15.672 26.704 16.016 27.968 16.704C29.248 17.392 30.24 18.392 30.944 19.704C31.648 21 32 22.552 32 24.36C32 26.12 31.64 27.68 30.92 29.04C30.2 30.4 29.192 31.456 27.896 32.208C26.616 32.96 25.152 33.336 23.504 33.336C21.808 33.336 20.32 32.992 19.04 32.304C17.776 31.616 16.792 30.624 16.088 29.328C15.384 28.016 15.032 26.456 15.032 24.648C15.032 22.888 15.392 21.328 16.112 19.968C16.832 18.608 17.832 17.552 19.112 16.8C20.408 16.048 21.88 15.672 23.528 15.672ZM23.432 16.104C22.552 16.104 21.776 16.464 21.104 17.184C20.432 17.888 19.912 18.88 19.544 20.16C19.192 21.44 19.016 22.904 19.016 24.552C19.016 26.216 19.216 27.68 19.616 28.944C20.032 30.208 20.584 31.184 21.272 31.872C21.976 32.56 22.752 32.904 23.6 32.904C24.48 32.904 25.256 32.552 25.928 31.848C26.6 31.128 27.112 30.128 27.464 28.848C27.832 27.568 28.016 26.104 28.016 24.456C28.016 22.792 27.808 21.328 27.392 20.064C26.992 18.8 26.44 17.824 25.736 17.136C25.048 16.448 24.28 16.104 23.432 16.104Z" fill="white"/>
</svg>
